<svg width="370" height="96" viewBox="0 0 370 96" fill="none" xmlns="http://www.w3.org/2000/svg">
<path d="M16.6807 48.9402L0.953857 1.34404H13.7016L22.431 29.8879C22.662 30.4883 22.8698 31.2273 23.0546 32.1049C23.2855 32.9363 23.5164 33.7907 23.7474 34.6683C23.9783 35.5459 24.14 36.308 24.2323 36.9546H24.7173C24.8097 36.4465 24.9252 35.8692 25.0637 35.2225C25.2023 34.5297 25.3408 33.86 25.4794 33.2134C25.618 32.5206 25.7565 31.897 25.8951 31.3428C26.0798 30.7424 26.2184 30.2574 26.3108 29.8879L34.4167 1.34404H50.2821L58.4573 29.8879C58.5958 30.4421 58.7575 31.135 58.9422 31.9663C59.1732 32.7977 59.381 33.6753 59.5658 34.599C59.7967 35.4766 59.9583 36.2618 60.0507 36.9546H60.5357C60.6281 36.4465 60.7435 35.8692 60.8821 35.2225C61.0668 34.5759 61.2516 33.9293 61.4363 33.2827C61.6211 32.636 61.7827 32.0356 61.9213 31.4814C62.1061 30.8809 62.2677 30.3498 62.4063 29.8879L71.1357 1.34404H82.7057L66.9788 48.9402H52.5683L43.7004 18.7336C43.5156 18.0408 43.3078 17.2787 43.0768 16.4473C42.8459 15.616 42.638 14.8077 42.4533 14.0225C42.3147 13.1911 42.1993 12.4752 42.1069 11.8748H41.7605C41.6219 12.5214 41.4372 13.2835 41.2062 14.1611C41.0215 15.0386 40.8136 15.8931 40.5827 16.7245C40.3979 17.5097 40.2363 18.1794 40.0977 18.7336L31.4376 48.9402H16.6807Z" fill="white"/>
<path d="M114.447 49.7716C108.12 49.7716 102.623 48.8017 97.9584 46.8618C93.3396 44.9219 89.7832 42.1276 87.289 38.4788C84.7949 34.7838 83.5479 30.3267 83.5479 25.1075C83.5479 19.8883 84.7949 15.4543 87.289 11.8055C89.7832 8.1105 93.3396 5.31616 97.9584 3.42248C102.623 1.4826 108.12 0.512665 114.447 0.512665C120.821 0.512665 126.317 1.4826 130.936 3.42248C135.555 5.31616 139.111 8.1105 141.605 11.8055C144.1 15.4543 145.347 19.8883 145.347 25.1075C145.347 30.3267 144.1 34.7838 141.605 38.4788C139.111 42.1276 135.555 44.9219 130.936 46.8618C126.317 48.8017 120.821 49.7716 114.447 49.7716ZM114.447 40.2801C117.172 40.2801 119.666 39.9799 121.93 39.3794C124.193 38.7328 126.156 37.809 127.819 36.6082C129.481 35.4073 130.751 33.9062 131.629 32.1049C132.553 30.2574 133.015 28.179 133.015 25.8696V24.2761C133.015 21.9667 132.553 19.9114 131.629 18.1101C130.751 16.3088 129.481 14.8077 127.819 13.6068C126.156 12.4059 124.193 11.5053 121.93 10.9048C119.666 10.2582 117.172 9.93491 114.447 9.93491C111.722 9.93491 109.228 10.2582 106.965 10.9048C104.702 11.5053 102.739 12.4059 101.076 13.6068C99.4133 14.8077 98.12 16.3088 97.1963 18.1101C96.3187 19.9114 95.8799 21.9667 95.8799 24.2761V25.8696C95.8799 28.179 96.3187 30.2574 97.1963 32.1049C98.12 33.9062 99.4133 35.4073 101.076 36.6082C102.739 37.809 104.702 38.7328 106.965 39.3794C109.228 39.9799 111.722 40.2801 114.447 40.2801Z" fill="white"/>
<path d="M154.604 48.9402V1.34404H166.59V38.8252H196.935V48.9402H154.604Z" fill="white"/>
<path d="M213.709 48.9402L190.916 1.34404H204.218L215.857 26.701C216.365 27.7633 216.873 28.9641 217.381 30.3036C217.936 31.5968 218.467 32.867 218.975 34.114C219.529 35.3611 219.968 36.4465 220.291 37.3703H220.845C221.169 36.5389 221.561 35.5228 222.023 34.3219C222.531 33.0748 223.062 31.8047 223.617 30.5114C224.217 29.172 224.771 27.9249 225.279 26.7702L236.988 1.34404H249.666L226.873 48.9402H213.709Z" fill="white"/>
<path d="M255.755 48.9402V1.34404H304.529V10.7663H267.741V20.1192H300.233V29.4029H267.741V39.4487H305.083V48.9402H255.755Z" fill="white"/>
<path d="M314.314 48.9402V1.34404H325.329L350.825 25.2461C351.333 25.6617 351.957 26.2622 352.696 27.0474C353.481 27.8326 354.289 28.6639 355.12 29.5415C355.952 30.3729 356.668 31.1119 357.268 31.7585H357.892C357.845 30.8347 357.776 29.68 357.684 28.2944C357.638 26.9088 357.615 25.7541 357.615 24.8304V1.34404H369.046V48.9402H358.238L332.95 25.0382C331.75 23.9297 330.502 22.7057 329.209 21.3663C327.916 20.0269 326.877 18.9415 326.092 18.1101H325.537C325.583 18.7105 325.63 19.7267 325.676 21.1585C325.722 22.5903 325.745 24.2068 325.745 26.0081V48.9402H314.314Z" fill="white"/>
<path d="M100.684 95.3619C97.8601 95.3619 95.432 94.8472 93.3997 93.8179C91.3939 92.7886 89.8367 91.2314 88.7282 89.1464C87.6461 87.0613 87.105 84.4484 87.105 81.3077C87.105 78.1406 87.6461 75.5277 88.7282 73.469C89.8367 71.384 91.3939 69.8268 93.3997 68.7975C95.432 67.7682 97.8601 67.2535 100.684 67.2535C103.508 67.2535 105.923 67.7682 107.929 68.7975C109.961 69.8268 111.518 71.384 112.601 73.469C113.709 75.5277 114.263 78.1406 114.263 81.3077C114.263 84.4484 113.709 87.0613 112.601 89.1464C111.518 91.2314 109.961 92.7886 107.929 93.8179C105.923 94.8472 103.508 95.3619 100.684 95.3619ZM100.684 92.1156C102.162 92.1156 103.495 91.9176 104.683 91.5217C105.897 91.1258 106.913 90.5056 107.731 89.661C108.576 88.7901 109.222 87.708 109.671 86.4147C110.12 85.0951 110.344 83.5379 110.344 81.7432V80.9118C110.344 79.0907 110.12 77.5335 109.671 76.2403C109.222 74.9206 108.576 73.8385 107.731 72.994C106.913 72.123 105.897 71.4896 104.683 71.0937C103.495 70.6978 102.162 70.4998 100.684 70.4998C99.1798 70.4998 97.8337 70.6978 96.6461 71.0937C95.4584 71.4896 94.4422 72.123 93.5977 72.994C92.7531 73.8385 92.1065 74.9206 91.6578 76.2403C91.2355 77.5335 91.0244 79.0907 91.0244 80.9118V81.7432C91.0244 83.5379 91.2355 85.0951 91.6578 86.4147C92.1065 87.708 92.7531 88.7901 93.5977 89.661C94.4422 90.5056 95.4584 91.1258 96.6461 91.5217C97.8337 91.9176 99.1798 92.1156 100.684 92.1156Z" fill="white"/>
<path d="M129.904 95.3619C127.608 95.3619 125.629 94.9924 123.966 94.2534C122.303 93.5144 121.023 92.3531 120.126 90.7695C119.255 89.1596 118.819 87.1009 118.819 84.5936V67.7286H122.58V84.9895C122.58 87.3648 123.214 89.1464 124.481 90.334C125.774 91.5217 127.582 92.1156 129.904 92.1156C132.253 92.1156 134.088 91.5217 135.407 90.334C136.727 89.1464 137.387 87.3648 137.387 84.9895V67.7286H141.108V84.5936C141.108 87.1009 140.66 89.1596 139.762 90.7695C138.865 92.3531 137.572 93.5144 135.882 94.2534C134.22 94.9924 132.227 95.3619 129.904 95.3619Z" fill="white"/>
<path d="M153.715 94.8868V71.0145H144.412V67.7286H166.859V71.0145H157.476V94.8868H153.715Z" fill="white"/>
<path d="M170.281 94.8868V67.7286H180.416C183.266 67.7286 185.695 68.2037 187.7 69.1538C189.706 70.1039 191.237 71.5819 192.293 73.5878C193.375 75.5673 193.916 78.1406 193.916 81.3077C193.916 84.422 193.375 86.9822 192.293 88.988C191.237 90.9939 189.706 92.4851 187.7 93.4616C185.695 94.4117 183.266 94.8868 180.416 94.8868H170.281ZM174.042 91.6405H180.337C181.841 91.6405 183.187 91.4557 184.375 91.0862C185.563 90.6903 186.579 90.0965 187.423 89.3047C188.268 88.5129 188.901 87.4968 189.324 86.2564C189.772 84.9895 189.997 83.4851 189.997 81.7432V80.9514C189.997 79.1567 189.772 77.6391 189.324 76.3986C188.901 75.1318 188.268 74.1024 187.423 73.3107C186.605 72.5189 185.602 71.9382 184.414 71.5687C183.227 71.1728 181.868 70.9749 180.337 70.9749H174.042V91.6405Z" fill="white"/>
<path d="M210.756 95.3619C207.932 95.3619 205.504 94.8472 203.472 93.8179C201.466 92.7886 199.909 91.2314 198.8 89.1464C197.718 87.0613 197.177 84.4484 197.177 81.3077C197.177 78.1406 197.718 75.5277 198.8 73.469C199.909 71.384 201.466 69.8268 203.472 68.7975C205.504 67.7682 207.932 67.2535 210.756 67.2535C213.58 67.2535 215.995 67.7682 218.001 68.7975C220.033 69.8268 221.59 71.384 222.673 73.469C223.781 75.5277 224.335 78.1406 224.335 81.3077C224.335 84.4484 223.781 87.0613 222.673 89.1464C221.59 91.2314 220.033 92.7886 218.001 93.8179C215.995 94.8472 213.58 95.3619 210.756 95.3619ZM210.756 92.1156C212.234 92.1156 213.567 91.9176 214.755 91.5217C215.969 91.1258 216.985 90.5056 217.803 89.661C218.648 88.7901 219.294 87.708 219.743 86.4147C220.192 85.0951 220.416 83.5379 220.416 81.7432V80.9118C220.416 79.0907 220.192 77.5335 219.743 76.2403C219.294 74.9206 218.648 73.8385 217.803 72.994C216.985 72.123 215.969 71.4896 214.755 71.0937C213.567 70.6978 212.234 70.4998 210.756 70.4998C209.252 70.4998 207.906 70.6978 206.718 71.0937C205.53 71.4896 204.514 72.123 203.67 72.994C202.825 73.8385 202.179 74.9206 201.73 76.2403C201.308 77.5335 201.096 79.0907 201.096 80.9118V81.7432C201.096 83.5379 201.308 85.0951 201.73 86.4147C202.179 87.708 202.825 88.7901 203.67 89.661C204.514 90.5056 205.53 91.1258 206.718 91.5217C207.906 91.9176 209.252 92.1156 210.756 92.1156Z" fill="white"/>
<path d="M241.164 95.3619C238.34 95.3619 235.912 94.8472 233.88 93.8179C231.874 92.7886 230.317 91.2314 229.208 89.1464C228.126 87.0613 227.585 84.4484 227.585 81.3077C227.585 78.1406 228.126 75.5277 229.208 73.469C230.317 71.384 231.874 69.8268 233.88 68.7975C235.912 67.7682 238.34 67.2535 241.164 67.2535C243.988 67.2535 246.403 67.7682 248.409 68.7975C250.441 69.8268 251.998 71.384 253.081 73.469C254.189 75.5277 254.743 78.1406 254.743 81.3077C254.743 84.4484 254.189 87.0613 253.081 89.1464C251.998 91.2314 250.441 92.7886 248.409 93.8179C246.403 94.8472 243.988 95.3619 241.164 95.3619ZM241.164 92.1156C242.642 92.1156 243.975 91.9176 245.163 91.5217C246.377 91.1258 247.393 90.5056 248.211 89.661C249.056 88.7901 249.702 87.708 250.151 86.4147C250.6 85.0951 250.824 83.5379 250.824 81.7432V80.9118C250.824 79.0907 250.6 77.5335 250.151 76.2403C249.702 74.9206 249.056 73.8385 248.211 72.994C247.393 72.123 246.377 71.4896 245.163 71.0937C243.975 70.6978 242.642 70.4998 241.164 70.4998C239.66 70.4998 238.314 70.6978 237.126 71.0937C235.938 71.4896 234.922 72.123 234.078 72.994C233.233 73.8385 232.586 74.9206 232.138 76.2403C231.716 77.5335 231.504 79.0907 231.504 80.9118V81.7432C231.504 83.5379 231.716 85.0951 232.138 86.4147C232.586 87.708 233.233 88.7901 234.078 89.661C234.922 90.5056 235.938 91.1258 237.126 91.5217C238.314 91.9176 239.66 92.1156 241.164 92.1156Z" fill="white"/>
<path d="M259.379 94.8868V67.7286H273.67C275.518 67.7286 277.049 68.0717 278.263 68.7579C279.503 69.4177 280.427 70.3547 281.034 71.5687C281.641 72.7564 281.944 74.1288 281.944 75.686C281.944 77.5599 281.522 79.1699 280.678 80.5159C279.833 81.8619 278.672 82.8253 277.194 83.4059L282.895 94.8868H278.777L273.472 84.0789H263.14V94.8868H259.379ZM263.14 80.8722H273.314C274.818 80.8722 275.993 80.4103 276.837 79.4866C277.708 78.5628 278.144 77.296 278.144 75.686C278.144 74.6831 277.959 73.8385 277.59 73.1523C277.22 72.4661 276.679 71.9382 275.967 71.5687C275.254 71.1728 274.37 70.9749 273.314 70.9749H263.14V80.8722Z" fill="white"/>
</svg>
