<svg width="28" height="28" viewBox="0 0 28 28" fill="none" xmlns="http://www.w3.org/2000/svg">
<path d="M26 26.0003L20.2094 20.2096M20.2094 20.2096C21.1999 19.2191 21.9856 18.0432 22.5217 16.749C23.0577 15.4548 23.3336 14.0677 23.3336 12.6669C23.3336 11.2661 23.0577 9.87905 22.5217 8.58488C21.9856 7.29071 21.1999 6.11479 20.2094 5.12427C19.2188 4.13376 18.0429 3.34804 16.7488 2.81197C15.4546 2.27591 14.0675 2 12.6667 2C11.2659 2 9.87881 2.27591 8.58464 2.81197C7.29046 3.34804 6.11455 4.13376 5.12403 5.12427C3.12359 7.12471 1.99976 9.83789 1.99976 12.6669C1.99976 15.496 3.12359 18.2092 5.12403 20.2096C7.12447 22.21 9.83765 23.3339 12.6667 23.3339C15.4957 23.3339 18.2089 22.21 20.2094 20.2096Z" stroke="black" stroke-width="2.5" stroke-linecap="round" stroke-linejoin="round"/>
</svg>
